<svg xmlns="http://www.w3.org/2000/svg" xmlns:xlink="http://www.w3.org/1999/xlink" viewBox="-3536 -11097 49.13 10.985">
  <defs>
    <style>
      .cls-1 {
        fill: none;
      }

      .cls-2 {
        clip-path: url(#clip-path);
      }

      .cls-3 {
        fill: #68859f;
      }
    </style>
    <clipPath id="clip-path">
      <path id="Path_27" data-name="Path 27" class="cls-1" d="M0-10.985H49.13V0H0Z" transform="translate(0 10.985)"/>
    </clipPath>
  </defs>
  <g id="Group_47" data-name="Group 47" transform="translate(-3536 -11097)">
    <g id="Group_46" data-name="Group 46" class="cls-2">
      <g id="Group_44" data-name="Group 44">
        <path id="Path_25" data-name="Path 25" class="cls-3" d="M0,0C-4.726,2.565-7.844-6.839,4.067-4.47,11.554-2.981,23.691,6.972,30.9.267c5.681-5.284.79-9.4-2.5-7.441-.3.181-.638.774-.845.878,3.95-1.98,6.4,4.172,3.038,6.444C21.914,6.017,4.742-12.792-3.682-3.726-6.171-1.047-3.941,2.791-.5.521-.327.406-.123.067,0,0" transform="translate(4.743 8.42)"/>
      </g>
      <g id="Group_45" data-name="Group 45">
        <path id="Path_26" data-name="Path 26" class="cls-3" d="M0,0C-4.726,2.565-7.844-6.839,4.067-4.47,11.554-2.981,23.691,6.971,30.9.267c5.681-5.284.79-9.4-2.5-7.441-.3.181-.638.774-.845.878,3.95-1.98,6.4,4.172,3.038,6.444C21.914,6.017,4.742-12.792-3.682-3.726-6.172-1.047-3.941,2.791-.5.521-.327.406-.123.067,0,0" transform="translate(15.621 7.67)"/>
      </g>
    </g>
  </g>
</svg>
